<svg xmlns="http://www.w3.org/2000/svg" width="40" height="40" viewBox="0 0 24 24" fill="currentColor">
  <path d="M7.75 2h8.5A5.75 5.75 0 0 1 22 7.75v8.5A5.75 5.75 0 0 1 16.25 22h-8.5A5.75 5.75 0 0 1 2 16.25v-8.5A5.75 5.75 0 0 1 7.75 2zm0 1.5A4.25 4.25 0 0 0 3.5 7.75v8.5A4.25 4.25 0 0 0 7.75 20.5h8.5a4.25 4.25 0 0 0 4.25-4.25v-8.5A4.25 4.25 0 0 0 16.25 3.5h-8.5zm4.25 4a5.25 5.25 0 1 1 0 10.5a5.25 5.25 0 0 1 0-10.5zm0 1.5a3.75 3.75 0 1 0 0 7.5a3.75 3.75 0 0 0 0-7.5zm5.5-.88a1.13 1.13 0 1 1-2.26 0a1.13 1.13 0 0 1 2.26 0z"></path>
</svg>
